
        <svg xmlns="http://www.w3.org/2000/svg" xmlns:xlink="http://www.w3.org/1999/xlink" version="1.1" width="3157.48031496063" height="1024.3702301148796" viewBox="0 0 3157.48031496063 1024.3702301148796">
			
			<g transform="scale(7.874015748031496) translate(10, 10)">
				<defs id="SvgjsDefs1046"><linearGradient id="SvgjsLinearGradient1053"><stop id="SvgjsStop1054" stop-color="#006838" offset="0"/><stop id="SvgjsStop1055" stop-color="#96cf24" offset="1"/></linearGradient></defs><g id="SvgjsG1047" featureKey="UqkkrJ-0" transform="matrix(-1.3275708953046996,0,0,1.3275708953046996,104.81949053824454,-3.883643004112429)" fill="#000"><path xmlns="http://www.w3.org/2000/svg" d="M48.75,8.644c-8.709-0.419-13.492-9.322-24.035-4.06c-11.669,5.824-11.669,16.25-11.669,17.193  c0,14.2,7.783,15.296,7.191,27.012c-1.451,28.755,10.422,38.119,17.056,36.834c8.978-1.738-8.855-32.092,9.166-32.092  S46,82.97,54.708,85.624c6.903,2.104,18.741-10.161,17.056-36.834c-0.74-11.708,7.191-12.812,7.191-27.012  c0-2.877,0.313-11.199-11.049-16.178s-12.239,16.067-29.002,9.623c0,0-1.533-0.196-2.183-1.218  C44.776,13.988,48.75,8.644,48.75,8.644z"/></g><g id="SvgjsG1048" featureKey="0kuQ8p-0" transform="matrix(4.557291485576173,0,0,4.557291485576173,105.90364356970217,-17.614580798066424)" fill="#000"><path d="M0.52 9.36 c0 -2.24 1.1 -3.52 3.24 -3.52 s3.24 1.28 3.24 3.52 l0 0.44 l-2.08 0 l0 -0.58 c0 -1 -0.4 -1.38 -1.1 -1.38 s-1.1 0.38 -1.1 1.38 c0 1.02 0.44 1.78 1.88 3.04 c1.84 1.62 2.42 2.78 2.42 4.38 c0 2.24 -1.12 3.52 -3.28 3.52 s-3.28 -1.28 -3.28 -3.52 l0 -0.86 l2.08 0 l0 1 c0 1 0.44 1.36 1.14 1.36 s1.14 -0.36 1.14 -1.36 c0 -1.02 -0.44 -1.78 -1.88 -3.04 c-1.84 -1.62 -2.42 -2.78 -2.42 -4.38 z M8.18 14 l0 -2 l4 0 l0 2 l-4 0 z M13.680000000000001 20 l0 -14 l3.48 0 c2.2 0 3.28 1.22 3.28 3.46 l0 7.08 c0 2.24 -1.08 3.46 -3.28 3.46 l-3.48 0 z M17.12 8 l-1.24 0 l0 10 l1.24 0 c0.7 0 1.12 -0.36 1.12 -1.36 l0 -7.28 c0 -1 -0.42 -1.36 -1.12 -1.36 z M24.04 8 l0 3.9 l3.02 0 l0 2 l-3.02 0 l0 4.1 l3.8 0 l0 2 l-6 0 l0 -14 l6 0 l0 2 l-3.8 0 z M33.9 20 l-2.7 -10.14 l-0.04 0 l0 10.14 l-1.98 0 l0 -14 l2.76 0 l2.22 8.38 l0.04 0 l0 -8.38 l1.96 0 l0 14 l-2.26 0 z M37.099999999999994 8 l0 -2 l6.8 0 l0 2 l-2.3 0 l0 12 l-2.2 0 l0 -12 l-2.3 0 z M48.98 6 l2.24 14 l-2.22 0 l-0.38 -2.54 l-2.7 0 l-0.38 2.54 l-2.02 0 l2.24 -14 l3.22 0 z M47.239999999999995 8.48 l-1.04 7.08 l2.12 0 l-1.04 -7.08 l-0.04 0 z M52.239999999999995 20 l0 -14 l2.2 0 l0 12 l3.62 0 l0 2 l-5.82 0 z"/></g><g id="SvgjsG1049" featureKey="Nh6iBa-0" transform="matrix(1.252045479817986,0,0,1.252045479817986,107.02340366603056,76.6880559978814)" fill="#000"><path d="M3.84 6 l1.6 9.94 l0.04 0 l1.48 -9.94 l3.06 0 l0 14 l-2.08 0 l0 -10.04 l-0.04 0 l-1.48 10.04 l-2.08 0 l-1.6 -9.9 l-0.04 0 l0 9.9 l-1.92 0 l0 -14 l3.06 0 z M22.8479375 8 l0 3.9 l3.02 0 l0 2 l-3.02 0 l0 4.1 l3.8 0 l0 2 l-6 0 l0 -14 l6 0 l0 2 l-3.8 0 z M37.035875 20 l0 -14 l3.48 0 c2.2 0 3.28 1.22 3.28 3.46 l0 7.08 c0 2.24 -1.08 3.46 -3.28 3.46 l-3.48 0 z M40.475875 8 l-1.24 0 l0 10 l1.24 0 c0.7 0 1.12 -0.36 1.12 -1.36 l0 -7.28 c0 -1 -0.42 -1.36 -1.12 -1.36 z M54.223812499999994 20 l0 -14 l2.2 0 l0 14 l-2.2 0 z M71.35175 14.780000000000001 l2.08 0 l0 1.86 c0 2.24 -1.12 3.52 -3.28 3.52 s-3.28 -1.28 -3.28 -3.52 l0 -7.28 c0 -2.24 1.12 -3.52 3.28 -3.52 s3.28 1.28 3.28 3.52 l0 1.36 l-2.08 0 l0 -1.5 c0 -1 -0.44 -1.38 -1.14 -1.38 s-1.14 0.38 -1.14 1.38 l0 7.56 c0 1 0.44 1.36 1.14 1.36 s1.14 -0.36 1.14 -1.36 l0 -2 z M88.6796875 6 l2.24 14 l-2.22 0 l-0.38 -2.54 l-2.7 0 l-0.38 2.54 l-2.02 0 l2.24 -14 l3.22 0 z M86.93968749999999 8.48 l-1.04 7.08 l2.12 0 l-1.04 -7.08 l-0.04 0 z M100.96762499999998 20 l0 -14 l2.2 0 l0 12 l3.62 0 l0 2 l-5.82 0 z M133.2035 14.780000000000001 l2.08 0 l0 1.86 c0 2.24 -1.12 3.52 -3.28 3.52 s-3.28 -1.28 -3.28 -3.52 l0 -7.28 c0 -2.24 1.12 -3.52 3.28 -3.52 s3.28 1.28 3.28 3.52 l0 1.36 l-2.08 0 l0 -1.5 c0 -1 -0.44 -1.38 -1.14 -1.38 s-1.14 0.38 -1.14 1.38 l0 7.56 c0 1 0.44 1.36 1.14 1.36 s1.14 -0.36 1.14 -1.36 l0 -2 z M147.8514375 8 l0 3.9 l3.02 0 l0 2 l-3.02 0 l0 4.1 l3.8 0 l0 2 l-6 0 l0 -14 l6 0 l0 2 l-3.8 0 z M166.739375 20 l-2.7 -10.14 l-0.04 0 l0 10.14 l-1.98 0 l0 -14 l2.76 0 l2.22 8.38 l0.04 0 l0 -8.38 l1.96 0 l0 14 l-2.26 0 z M178.9673125 8 l0 -2 l6.8 0 l0 2 l-2.3 0 l0 12 l-2.2 0 l0 -12 l-2.3 0 z M202.59525 20 l-2.24 0 c-0.12 -0.36 -0.2 -0.58 -0.2 -1.72 l0 -2.2 c0 -1.3 -0.44 -1.78 -1.44 -1.78 l-0.76 0 l0 5.7 l-2.2 0 l0 -14 l3.32 0 c2.28 0 3.26 1.06 3.26 3.22 l0 1.1 c0 1.44 -0.46 2.36 -1.44 2.82 l0 0.04 c1.1 0.46 1.46 1.5 1.46 2.96 l0 2.16 c0 0.68 0.02 1.18 0.24 1.7 z M199.01525 8 l-1.06 0 l0 4.3 l0.86 0 c0.82 0 1.32 -0.36 1.32 -1.48 l0 -1.38 c0 -1 -0.34 -1.44 -1.12 -1.44 z M215.0231875 8 l0 3.9 l3.02 0 l0 2 l-3.02 0 l0 4.1 l3.8 0 l0 2 l-6 0 l0 -14 l6 0 l0 2 l-3.8 0 z"/></g>
			</g>
		</svg>
	